<svg xmlns="http://www.w3.org/2000/svg" xmlns:xlink="http://www.w3.org/1999/xlink" xmlns:lucid="lucid" width="802" height="571.96"><g transform="translate(-839 -321.0360306046893)" lucid:page-tab-id="0_0"><path d="M500 0h1500v1000H500z" fill="#fff"/><path d="M1160 330.04a8 8 0 0 1 8-8h144a8 8 0 0 1 8 8v144a8 8 0 0 1-8 8h-144a8 8 0 0 1-8-8z" stroke="#000" stroke-width="2" fill="#fff"/><use xlink:href="#a" transform="matrix(1,0,0,1,1165,327.0360306046893) translate(28.66845703125 83.0625)"/><path d="M1440 330.04a8 8 0 0 1 8-8h144a8 8 0 0 1 8 8v144a8 8 0 0 1-8 8h-144a8 8 0 0 1-8-8z" stroke="#000" stroke-width="2" fill="#fff"/><use xlink:href="#b" transform="matrix(1,0,0,1,1445,327.0360306046893) translate(29.6748046875 83.0625)"/><path d="M880 330.04a8 8 0 0 1 8-8h144a8 8 0 0 1 8 8v144a8 8 0 0 1-8 8H888a8 8 0 0 1-8-8z" stroke="#000" stroke-width="2" fill="#fff"/><use xlink:href="#c" transform="matrix(1,0,0,1,885,327.0360306046893) translate(34.8427734375 83.0625)"/><path d="M840 676a16 16 0 0 1 16-16h168a16 16 0 0 1 16 16v200a16 16 0 0 1-16 16H856a16 16 0 0 1-16-16z" fill="#fff"/><path d="M840 700h200v33H840z" fill="#fff"/><path d="M840 732h200v33H840z" fill="#fff"/><path d="M840 764h200v33H840z" fill="#fff"/><path d="M840 796h200v33H840z" fill="#fff"/><path d="M840 828h200v33H840z" fill="#fff"/><path d="M840 860h200v16a16 16 0 0 1-16 16H856a16 16 0 0 1-16-16z" fill="#fff"/><path d="M841 700h198-198zM840 676a16 16 0 0 1 16-16h168a16 16 0 0 1 16 16v200a16 16 0 0 1-16 16H856a16 16 0 0 1-16-16z" stroke="#000" stroke-width="2" fill="none"/><use xlink:href="#a" transform="matrix(1,0,0,1,850,660) translate(43.66845703125 26.5478515625)"/><use xlink:href="#d" transform="matrix(1,0,0,1,845,702.5) translate(41.4833984375 20.0478515625)"/><use xlink:href="#e" transform="matrix(1,0,0,1,845,734.5) translate(50.49658203125 20.0478515625)"/><use xlink:href="#f" transform="matrix(1,0,0,1,845,766.5) translate(52.162109375 20.0478515625)"/><use xlink:href="#g" transform="matrix(1,0,0,1,845,798.5) translate(34.28955078125 20.0478515625)"/><use xlink:href="#h" transform="matrix(1,0,0,1,845,830.5) translate(52.64990234375 20.0478515625)"/><use xlink:href="#i" transform="matrix(1,0,0,1,845,862.5) translate(53.498046875 20.0478515625)"/><path d="M1140 680a16 16 0 0 1 16-16h168a16 16 0 0 1 16 16v168a16 16 0 0 1-16 16h-168a16 16 0 0 1-16-16z" fill="#fff"/><path d="M1140 704h200v33h-200z" fill="#fff"/><path d="M1140 736h200v33h-200z" fill="#fff"/><path d="M1140 768h200v33h-200z" fill="#fff"/><path d="M1140 800h200v33h-200z" fill="#fff"/><path d="M1140 832h200v16a16 16 0 0 1-16 16h-168a16 16 0 0 1-16-16z" fill="#fff"/><path d="M1141 704h198-198zM1140 680a16 16 0 0 1 16-16h168a16 16 0 0 1 16 16v168a16 16 0 0 1-16 16h-168a16 16 0 0 1-16-16z" stroke="#000" stroke-width="2" fill="none"/><use xlink:href="#c" transform="matrix(1,0,0,1,1150,664) translate(49.8427734375 26.5478515625)"/><use xlink:href="#j" transform="matrix(1,0,0,1,1145,706.5) translate(47.7412109375 20.0478515625)"/><use xlink:href="#e" transform="matrix(1,0,0,1,1145,738.5) translate(50.49658203125 20.0478515625)"/><use xlink:href="#f" transform="matrix(1,0,0,1,1145,770.5) translate(52.162109375 20.0478515625)"/><use xlink:href="#g" transform="matrix(1,0,0,1,1145,802.5) translate(34.28955078125 20.0478515625)"/><use xlink:href="#k" transform="matrix(1,0,0,1,1145,834.5) translate(19.607421875 20.0478515625)"/><path d="M1440 712a16 16 0 0 1 16-16h168a16 16 0 0 1 16 16v104a16 16 0 0 1-16 16h-168a16 16 0 0 1-16-16z" fill="#fff"/><path d="M1440 736h200v33h-200z" fill="#fff"/><path d="M1440 768h200v33h-200z" fill="#fff"/><path d="M1440 800h200v16a16 16 0 0 1-16 16h-168a16 16 0 0 1-16-16z" fill="#fff"/><path d="M1441 736h198-198zM1440 712a16 16 0 0 1 16-16h168a16 16 0 0 1 16 16v104a16 16 0 0 1-16 16h-168a16 16 0 0 1-16-16z" stroke="#000" stroke-width="2" fill="none"/><use xlink:href="#b" transform="matrix(1,0,0,1,1450,696) translate(44.6748046875 26.5478515625)"/><use xlink:href="#l" transform="matrix(1,0,0,1,1445,738.5) translate(76.8330078125 20.0478515625)"/><use xlink:href="#m" transform="matrix(1,0,0,1,1445,770.5) translate(64.02294921875 20.0478515625)"/><use xlink:href="#n" transform="matrix(1,0,0,1,1445,802.5) translate(35.56396484375 20.0478515625)"/><path d="M1061 402.04h78M1041.22 402.04h20m-20 10l20-10m-20-10l20 10m0 10v-20M1158.78 402.04h-20m20-10l-20 10m20 10l-20-10m0-10v20M1341 402.04h58M1321 402.04h20m-10 10v-20m10 20v-20" stroke="#3a414a" fill="none"/><path d="M1438.78 402.04h-20m20-10l-20 10m20 10l-20-10m-20 .1v-.1a10 10 0 0 1 10-10 10 10 0 0 1 10 10 10 10 0 0 1-10 10 10 10 0 0 1-10-10v-.1" stroke="#3a414a" fill="#fff"/><path d="M1061 780.04h58M1041.22 780.04h20m-20 10l20-10m-20-10l20 10m0 10v-20M1138.78 780.04h-20m20-10l-20 10m20 10l-20-10m0-10v20M1361 751.88h38M1341 751.88h20m-10 10v-20m10 20v-20" stroke="#3a414a" fill="none"/><path d="M1438.78 751.88h-20m20-10l-20 10m20 10l-20-10m-20 .1v-.1a10 10 0 0 1 10-10 10 10 0 0 1 10 10 10 10 0 0 1-10 10 10 10 0 0 1-10-10v-.1" stroke="#3a414a" fill="#fff"/><defs><path fill="#3a414a" d="M180 0v-1490h908v168H370v486h669v168H370v500h727V0H180" id="o"/><path fill="#3a414a" d="M158 0v-1118h175l1 205c55-151 181-225 313-225 147 0 245 90 285 228 53-141 190-228 352-228 194 0 352 125 352 384V0h-181v-749c0-161-105-225-225-225-151 0-243 103-243 244V0H807v-767c0-124-93-207-219-207-131 0-250 92-250 270V0H158" id="p"/><path fill="#3a414a" d="M158 418v-1536h174v179h20c37-59 106-193 324-193 279 0 474 222 474 576 0 356-194 580-473 580-213 0-288-135-325-197h-14v591H158zm492-555c209 0 317-186 317-421 0-232-105-413-317-413-206 0-314 166-314 413 0 249 111 421 314 421" id="q"/><path fill="#3a414a" d="M338-1490V0H158v-1490h180" id="r"/><path fill="#3a414a" d="M613 24c-304 0-509-231-509-576 0-350 205-580 509-580 305 0 511 230 511 580 0 345-206 576-511 576zm0-161c226 0 329-195 329-415 0-222-103-419-329-419-223 0-326 196-326 419 0 220 103 415 326 415" id="s"/><path fill="#3a414a" d="M140 405l46-156c120 36 205 19 263-150l32-93L54-1118h197c107 313 237 620 324 950 87-331 219-637 326-950h196L606 167c-68 178-176 259-334 259-64 0-113-12-132-21" id="t"/><path fill="#3a414a" d="M628 24c-324 0-524-230-524-574 0-343 198-582 503-582 237 0 487 146 487 559v75H286c9 234 145 362 343 362 132 0 231-58 273-172l174 48C1024-91 857 24 628 24zM287-650h624c-17-190-120-322-304-322-192 0-309 151-320 322" id="u"/><path fill="#3a414a" d="M538 24C308 24 148-78 108-271l171-41c32 123 123 178 257 178 156 0 256-77 256-169 0-77-54-128-164-154l-186-44c-203-48-300-148-300-305 0-192 176-326 414-326 230 0 351 112 402 269l-163 42c-31-80-94-158-238-158-133 0-233 69-233 162 0 83 57 129 188 160l169 40c203 48 298 149 298 302 0 196-179 339-441 339" id="v"/><g id="a"><use transform="matrix(0.0087890625,0,0,0.0087890625,0,0)" xlink:href="#o"/><use transform="matrix(0.0087890625,0,0,0.0087890625,10.8193359375,0)" xlink:href="#p"/><use transform="matrix(0.0087890625,0,0,0.0087890625,26.5869140625,0)" xlink:href="#q"/><use transform="matrix(0.0087890625,0,0,0.0087890625,37.6083984375,0)" xlink:href="#r"/><use transform="matrix(0.0087890625,0,0,0.0087890625,41.9677734375,0)" xlink:href="#s"/><use transform="matrix(0.0087890625,0,0,0.0087890625,52.4091796875,0)" xlink:href="#t"/><use transform="matrix(0.0087890625,0,0,0.0087890625,62.173828125,0)" xlink:href="#u"/><use transform="matrix(0.0087890625,0,0,0.0087890625,72.66796875,0)" xlink:href="#u"/><use transform="matrix(0.0087890625,0,0,0.0087890625,83.162109375,0)" xlink:href="#v"/></g><path fill="#3a414a" d="M1096 418H916v-591h-14C865-111 790 24 577 24c-279 0-473-224-473-580 0-354 195-576 474-576 218 0 287 134 324 193h20v-179h174V418zM604-137c203 0 314-172 314-421 0-247-108-413-314-413-212 0-317 181-317 413 0 235 108 421 317 421" id="w"/><path fill="#3a414a" d="M537 14c-226 0-379-139-379-422v-710h180v695c0 172 97 275 253 275 160 0 281-109 281-300v-670h181V0H879v-209C806-46 684 14 537 14" id="x"/><path fill="#3a414a" d="M158 0v-1118h180V0H158zm91-1301c-68 0-125-53-125-119s57-119 125-119c69 0 126 53 126 119s-57 119-126 119" id="y"/><path fill="#3a414a" d="M338-670V0H158v-1118h173l1 207c72-158 192-221 342-221 226 0 378 139 378 422V0H872v-695c0-172-96-275-252-275-161 0-282 109-282 300" id="z"/><path fill="#3a414a" d="M598-1118v154H368v674c0 100 37 144 132 144 23 0 62-6 92-12L629-6c-37 13-88 20-134 20-193 0-307-107-307-290v-688H20v-154h168v-266h180v266h230" id="A"/><g id="b"><use transform="matrix(0.0087890625,0,0,0.0087890625,0,0)" xlink:href="#o"/><use transform="matrix(0.0087890625,0,0,0.0087890625,10.8193359375,0)" xlink:href="#w"/><use transform="matrix(0.0087890625,0,0,0.0087890625,21.8408203125,0)" xlink:href="#x"/><use transform="matrix(0.0087890625,0,0,0.0087890625,32.484375,0)" xlink:href="#y"/><use transform="matrix(0.0087890625,0,0,0.0087890625,36.84375,0)" xlink:href="#q"/><use transform="matrix(0.0087890625,0,0,0.0087890625,47.865234375,0)" xlink:href="#p"/><use transform="matrix(0.0087890625,0,0,0.0087890625,63.6328125,0)" xlink:href="#u"/><use transform="matrix(0.0087890625,0,0,0.0087890625,74.126953125,0)" xlink:href="#z"/><use transform="matrix(0.0087890625,0,0,0.0087890625,84.76171875,0)" xlink:href="#A"/></g><path fill="#3a414a" d="M180 0v-1490h270l367 940c28 72 75 218 110 339 35-117 81-264 110-339l362-940h271V0h-187c2-448-5-837 7-1287-157 497-311 829-483 1287H842C666-458 514-784 354-1284c12 438 5 843 7 1284H180" id="B"/><path fill="#3a414a" d="M677 24c-213 0-288-135-325-197h-20V0H158v-1490h180v551h14c37-59 106-193 324-193 279 0 474 222 474 576 0 356-194 580-473 580zm-27-161c209 0 317-186 317-421 0-232-105-413-317-413-206 0-314 166-314 413 0 249 111 421 314 421" id="C"/><path fill="#3a414a" d="M158 0v-1118h174v172h12c41-113 157-188 290-188 26 0 70 2 91 3v181c-11-2-60-10-108-10-161 0-279 109-279 260V0H158" id="D"/><g id="c"><use transform="matrix(0.0087890625,0,0,0.0087890625,0,0)" xlink:href="#B"/><use transform="matrix(0.0087890625,0,0,0.0087890625,16.259765625,0)" xlink:href="#u"/><use transform="matrix(0.0087890625,0,0,0.0087890625,26.75390625,0)" xlink:href="#p"/><use transform="matrix(0.0087890625,0,0,0.0087890625,42.521484375,0)" xlink:href="#C"/><use transform="matrix(0.0087890625,0,0,0.0087890625,53.54296875,0)" xlink:href="#u"/><use transform="matrix(0.0087890625,0,0,0.0087890625,64.037109375,0)" xlink:href="#D"/><use transform="matrix(0.0087890625,0,0,0.0087890625,70.8134765625,0)" xlink:href="#v"/></g><path fill="#3a414a" d="M934 0v166H0V0h934" id="E"/><path fill="#3a414a" d="M577 24c-279 0-473-224-473-580 0-354 195-576 474-576 218 0 287 134 324 193h14v-551h180V0H922v-173h-20C865-111 790 24 577 24zm27-161c203 0 314-172 314-421 0-247-108-413-314-413-212 0-317 181-317 413 0 235 108 421 317 421" id="F"/><g id="d"><use transform="matrix(0.0087890625,0,0,0.0087890625,0,0)" xlink:href="#u"/><use transform="matrix(0.0087890625,0,0,0.0087890625,10.494140625,0)" xlink:href="#p"/><use transform="matrix(0.0087890625,0,0,0.0087890625,26.26171875,0)" xlink:href="#q"/><use transform="matrix(0.0087890625,0,0,0.0087890625,37.283203125,0)" xlink:href="#r"/><use transform="matrix(0.0087890625,0,0,0.0087890625,41.642578125,0)" xlink:href="#s"/><use transform="matrix(0.0087890625,0,0,0.0087890625,52.083984375,0)" xlink:href="#t"/><use transform="matrix(0.0087890625,0,0,0.0087890625,61.8486328125,0)" xlink:href="#u"/><use transform="matrix(0.0087890625,0,0,0.0087890625,72.3427734375,0)" xlink:href="#u"/><use transform="matrix(0.0087890625,0,0,0.0087890625,82.8369140625,0)" xlink:href="#E"/><use transform="matrix(0.0087890625,0,0,0.0087890625,91.65234375,0)" xlink:href="#y"/><use transform="matrix(0.0087890625,0,0,0.0087890625,96.01171875,0)" xlink:href="#F"/></g><path fill="#3a414a" d="M678-1118v154H420V0H240v-964H20v-154h220v-149c0-194 155-293 318-293 85 0 141 18 168 30l-50 154c-19-6-47-17-97-17-111 0-159 58-159 166v109h258" id="G"/><path fill="#3a414a" d="M471 26C259 26 90-98 90-318c0-256 228-303 435-329 202-27 287-16 287-108 0-139-79-219-234-219-161 0-248 86-283 164l-173-57c86-203 278-265 451-265 150 0 419 46 419 395V0H815v-152h-12C765-73 660 26 471 26zm31-159c199 0 310-134 310-271v-155c-30 35-226 55-295 64-131 17-246 59-246 186 0 116 97 176 231 176" id="H"/><g id="e"><use transform="matrix(0.0087890625,0,0,0.0087890625,0,0)" xlink:href="#G"/><use transform="matrix(0.0087890625,0,0,0.0087890625,6.662109375,0)" xlink:href="#y"/><use transform="matrix(0.0087890625,0,0,0.0087890625,11.021484375,0)" xlink:href="#D"/><use transform="matrix(0.0087890625,0,0,0.0087890625,17.7978515625,0)" xlink:href="#v"/><use transform="matrix(0.0087890625,0,0,0.0087890625,27.298828125,0)" xlink:href="#A"/><use transform="matrix(0.0087890625,0,0,0.0087890625,33.1875,0)" xlink:href="#E"/><use transform="matrix(0.0087890625,0,0,0.0087890625,42.0029296875,0)" xlink:href="#z"/><use transform="matrix(0.0087890625,0,0,0.0087890625,52.6376953125,0)" xlink:href="#H"/><use transform="matrix(0.0087890625,0,0,0.0087890625,62.7451171875,0)" xlink:href="#p"/><use transform="matrix(0.0087890625,0,0,0.0087890625,78.5126953125,0)" xlink:href="#u"/></g><g id="f"><use transform="matrix(0.0087890625,0,0,0.0087890625,0,0)" xlink:href="#r"/><use transform="matrix(0.0087890625,0,0,0.0087890625,4.359375,0)" xlink:href="#H"/><use transform="matrix(0.0087890625,0,0,0.0087890625,14.466796875,0)" xlink:href="#v"/><use transform="matrix(0.0087890625,0,0,0.0087890625,23.9677734375,0)" xlink:href="#A"/><use transform="matrix(0.0087890625,0,0,0.0087890625,29.8564453125,0)" xlink:href="#E"/><use transform="matrix(0.0087890625,0,0,0.0087890625,38.671875,0)" xlink:href="#z"/><use transform="matrix(0.0087890625,0,0,0.0087890625,49.306640625,0)" xlink:href="#H"/><use transform="matrix(0.0087890625,0,0,0.0087890625,59.4140625,0)" xlink:href="#p"/><use transform="matrix(0.0087890625,0,0,0.0087890625,75.181640625,0)" xlink:href="#u"/></g><g id="g"><use transform="matrix(0.0087890625,0,0,0.0087890625,0,0)" xlink:href="#u"/><use transform="matrix(0.0087890625,0,0,0.0087890625,10.494140625,0)" xlink:href="#p"/><use transform="matrix(0.0087890625,0,0,0.0087890625,26.26171875,0)" xlink:href="#H"/><use transform="matrix(0.0087890625,0,0,0.0087890625,36.369140625,0)" xlink:href="#y"/><use transform="matrix(0.0087890625,0,0,0.0087890625,40.728515625,0)" xlink:href="#r"/><use transform="matrix(0.0087890625,0,0,0.0087890625,45.087890625,0)" xlink:href="#E"/><use transform="matrix(0.0087890625,0,0,0.0087890625,53.296875,0)" xlink:href="#H"/><use transform="matrix(0.0087890625,0,0,0.0087890625,63.404296875,0)" xlink:href="#F"/><use transform="matrix(0.0087890625,0,0,0.0087890625,74.42578125,0)" xlink:href="#F"/><use transform="matrix(0.0087890625,0,0,0.0087890625,85.447265625,0)" xlink:href="#D"/><use transform="matrix(0.0087890625,0,0,0.0087890625,91.9248046875,0)" xlink:href="#u"/><use transform="matrix(0.0087890625,0,0,0.0087890625,102.4189453125,0)" xlink:href="#v"/><use transform="matrix(0.0087890625,0,0,0.0087890625,111.919921875,0)" xlink:href="#v"/></g><g id="h"><use transform="matrix(0.0087890625,0,0,0.0087890625,0,0)" xlink:href="#x"/><use transform="matrix(0.0087890625,0,0,0.0087890625,10.6435546875,0)" xlink:href="#v"/><use transform="matrix(0.0087890625,0,0,0.0087890625,20.14453125,0)" xlink:href="#u"/><use transform="matrix(0.0087890625,0,0,0.0087890625,30.638671875,0)" xlink:href="#D"/><use transform="matrix(0.0087890625,0,0,0.0087890625,37.6962890625,0)" xlink:href="#z"/><use transform="matrix(0.0087890625,0,0,0.0087890625,48.3310546875,0)" xlink:href="#H"/><use transform="matrix(0.0087890625,0,0,0.0087890625,58.4384765625,0)" xlink:href="#p"/><use transform="matrix(0.0087890625,0,0,0.0087890625,74.2060546875,0)" xlink:href="#u"/></g><path fill="#3a414a" d="M409 0L70-1118h191c89 329 165 560 243 925 75-353 154-601 240-925h192c85 325 161 564 235 922 77-354 157-598 244-922h191L1267 0h-179c-86-307-176-590-250-913C763-588 675-308 588 0H409" id="I"/><g id="i"><use transform="matrix(0.0087890625,0,0,0.0087890625,0,0)" xlink:href="#q"/><use transform="matrix(0.0087890625,0,0,0.0087890625,11.197265625,0)" xlink:href="#H"/><use transform="matrix(0.0087890625,0,0,0.0087890625,21.3046875,0)" xlink:href="#v"/><use transform="matrix(0.0087890625,0,0,0.0087890625,30.8056640625,0)" xlink:href="#v"/><use transform="matrix(0.0087890625,0,0,0.0087890625,40.306640625,0)" xlink:href="#I"/><use transform="matrix(0.0087890625,0,0,0.0087890625,54.7119140625,0)" xlink:href="#s"/><use transform="matrix(0.0087890625,0,0,0.0087890625,65.5048828125,0)" xlink:href="#D"/><use transform="matrix(0.0087890625,0,0,0.0087890625,71.982421875,0)" xlink:href="#F"/></g><g id="j"><use transform="matrix(0.0087890625,0,0,0.0087890625,0,0)" xlink:href="#p"/><use transform="matrix(0.0087890625,0,0,0.0087890625,15.767578125,0)" xlink:href="#u"/><use transform="matrix(0.0087890625,0,0,0.0087890625,26.26171875,0)" xlink:href="#p"/><use transform="matrix(0.0087890625,0,0,0.0087890625,42.029296875,0)" xlink:href="#C"/><use transform="matrix(0.0087890625,0,0,0.0087890625,53.05078125,0)" xlink:href="#u"/><use transform="matrix(0.0087890625,0,0,0.0087890625,63.544921875,0)" xlink:href="#D"/><use transform="matrix(0.0087890625,0,0,0.0087890625,70.3212890625,0)" xlink:href="#E"/><use transform="matrix(0.0087890625,0,0,0.0087890625,79.13671875,0)" xlink:href="#y"/><use transform="matrix(0.0087890625,0,0,0.0087890625,83.49609375,0)" xlink:href="#F"/></g><path fill="#3a414a" d="M338-670V0H158v-1490h180v566c73-149 190-208 336-208 226 0 379 139 379 422V0H872v-695c0-172-96-275-252-275-161 0-282 109-282 300" id="J"/><g id="k"><use transform="matrix(0.0087890625,0,0,0.0087890625,0,0)" xlink:href="#p"/><use transform="matrix(0.0087890625,0,0,0.0087890625,15.767578125,0)" xlink:href="#u"/><use transform="matrix(0.0087890625,0,0,0.0087890625,26.26171875,0)" xlink:href="#p"/><use transform="matrix(0.0087890625,0,0,0.0087890625,42.029296875,0)" xlink:href="#C"/><use transform="matrix(0.0087890625,0,0,0.0087890625,53.05078125,0)" xlink:href="#u"/><use transform="matrix(0.0087890625,0,0,0.0087890625,63.544921875,0)" xlink:href="#D"/><use transform="matrix(0.0087890625,0,0,0.0087890625,70.3212890625,0)" xlink:href="#v"/><use transform="matrix(0.0087890625,0,0,0.0087890625,79.822265625,0)" xlink:href="#J"/><use transform="matrix(0.0087890625,0,0,0.0087890625,90.4658203125,0)" xlink:href="#y"/><use transform="matrix(0.0087890625,0,0,0.0087890625,94.8251953125,0)" xlink:href="#q"/><use transform="matrix(0.0087890625,0,0,0.0087890625,105.8466796875,0)" xlink:href="#E"/><use transform="matrix(0.0087890625,0,0,0.0087890625,114.662109375,0)" xlink:href="#q"/><use transform="matrix(0.0087890625,0,0,0.0087890625,125.68359375,0)" xlink:href="#r"/><use transform="matrix(0.0087890625,0,0,0.0087890625,130.04296875,0)" xlink:href="#H"/><use transform="matrix(0.0087890625,0,0,0.0087890625,140.150390625,0)" xlink:href="#z"/></g><g id="l"><use transform="matrix(0.0087890625,0,0,0.0087890625,0,0)" xlink:href="#y"/><use transform="matrix(0.0087890625,0,0,0.0087890625,4.359375,0)" xlink:href="#A"/><use transform="matrix(0.0087890625,0,0,0.0087890625,10.072265625,0)" xlink:href="#u"/><use transform="matrix(0.0087890625,0,0,0.0087890625,20.56640625,0)" xlink:href="#p"/></g><path fill="#3a414a" d="M613 24c-304 0-509-231-509-576 0-350 205-580 509-580 216 0 392 114 453 309l-173 49c-33-115-133-197-280-197-223 0-326 196-326 419 0 220 103 415 326 415 150 0 252-85 285-206l172 49C1010-95 832 24 613 24" id="K"/><g id="m"><use transform="matrix(0.0087890625,0,0,0.0087890625,0,0)" xlink:href="#v"/><use transform="matrix(0.0087890625,0,0,0.0087890625,9.5009765625,0)" xlink:href="#u"/><use transform="matrix(0.0087890625,0,0,0.0087890625,19.9951171875,0)" xlink:href="#K"/><use transform="matrix(0.0087890625,0,0,0.0087890625,30.2783203125,0)" xlink:href="#A"/><use transform="matrix(0.0087890625,0,0,0.0087890625,36.1669921875,0)" xlink:href="#y"/><use transform="matrix(0.0087890625,0,0,0.0087890625,40.5263671875,0)" xlink:href="#s"/><use transform="matrix(0.0087890625,0,0,0.0087890625,51.3193359375,0)" xlink:href="#z"/></g><path fill="#3a414a" d="M481 0L54-1118h197c107 314 236 620 325 951 87-331 217-637 324-951h197L670 0H481" id="L"/><g id="n"><use transform="matrix(0.0087890625,0,0,0.0087890625,0,0)" xlink:href="#F"/><use transform="matrix(0.0087890625,0,0,0.0087890625,11.021484375,0)" xlink:href="#H"/><use transform="matrix(0.0087890625,0,0,0.0087890625,21.12890625,0)" xlink:href="#A"/><use transform="matrix(0.0087890625,0,0,0.0087890625,26.841796875,0)" xlink:href="#u"/><use transform="matrix(0.0087890625,0,0,0.0087890625,37.3359375,0)" xlink:href="#E"/><use transform="matrix(0.0087890625,0,0,0.0087890625,45.544921875,0)" xlink:href="#v"/><use transform="matrix(0.0087890625,0,0,0.0087890625,55.0458984375,0)" xlink:href="#u"/><use transform="matrix(0.0087890625,0,0,0.0087890625,65.5400390625,0)" xlink:href="#D"/><use transform="matrix(0.0087890625,0,0,0.0087890625,72.59765625,0)" xlink:href="#L"/><use transform="matrix(0.0087890625,0,0,0.0087890625,82.7138671875,0)" xlink:href="#y"/><use transform="matrix(0.0087890625,0,0,0.0087890625,87.0732421875,0)" xlink:href="#K"/><use transform="matrix(0.0087890625,0,0,0.0087890625,97.3564453125,0)" xlink:href="#u"/><use transform="matrix(0.0087890625,0,0,0.0087890625,107.8505859375,0)" xlink:href="#F"/></g></defs></g></svg>